<svg xmlns="http://www.w3.org/2000/svg" viewBox="0 0 1600 600" width="1600" height="600" font-family="'Segoe UI', 'Helvetica Neue', Arial, sans-serif">
<defs>
  <linearGradient id="bg" x1="0" y1="0" x2="0" y2="1">
    <stop offset="0" stop-color="#1b1b1f"/><stop offset="1" stop-color="#101012"/>
  </linearGradient>
  <pattern id="grid" width="40" height="40" patternUnits="userSpaceOnUse">
    <path d="M40 0H0V40" fill="none" stroke="#ffffff" stroke-opacity="0.035"/>
  </pattern>
  <radialGradient id="glow" cx="0.5" cy="0.5" r="0.5">
    <stop offset="0" stop-color="#f44c7f" stop-opacity="0.22"/><stop offset="1" stop-color="#f44c7f" stop-opacity="0"/>
  </radialGradient>
  <marker id="arr" viewBox="0 0 10 10" refX="9" refY="5" markerWidth="7" markerHeight="7" orient="auto-start-reverse">
    <path d="M0 0L10 5L0 10z" fill="#bbb"/>
  </marker>
  <marker id="arrp" viewBox="0 0 10 10" refX="9" refY="5" markerWidth="7" markerHeight="7" orient="auto-start-reverse">
    <path d="M0 0L10 5L0 10z" fill="#f44c7f"/>
  </marker>
</defs>
<rect width="1600" height="600" fill="url(#bg)"/>
<rect width="1600" height="600" fill="url(#grid)"/>
<text x="800.0" y="62.0" font-size="34" fill="#fff" text-anchor="middle" font-weight="700">Architecture distribuée</text>
<rect x="250" y="130" width="1320" height="440" rx="22" fill="none" stroke="#326ce5" stroke-dasharray="10 8" stroke-opacity="0.8"/>
<text x="270.0" y="158.0" font-size="15" fill="#6f9cff" text-anchor="start" font-weight="400">Cluster Kubernetes (Ingress · Deployments · Services)</text>
<rect x="40" y="290" width="170" height="80" rx="14" fill="#232329" stroke="#9e9e9e" stroke-width="2"/>
<rect x="40" y="290" width="6" height="80" rx="3" fill="#9e9e9e"/>
<text x="125.0" y="326.0" font-size="20" fill="#fff" text-anchor="middle" font-weight="600">Utilisateur</text>
<text x="125.0" y="350.0" font-size="14" fill="#aaa" text-anchor="middle" font-weight="400">navigateur</text>
<rect x="300" y="290" width="210" height="80" rx="14" fill="#232329" stroke="#4dd0e1" stroke-width="2"/>
<rect x="300" y="290" width="6" height="80" rx="3" fill="#4dd0e1"/>
<text x="405.0" y="326.0" font-size="20" fill="#fff" text-anchor="middle" font-weight="600">Frontend React</text>
<text x="405.0" y="350.0" font-size="14" fill="#aaa" text-anchor="middle" font-weight="400">SPA · graphiques</text>
<rect x="620" y="290" width="230" height="80" rx="14" fill="#232329" stroke="#f44c7f" stroke-width="2"/>
<rect x="620" y="290" width="6" height="80" rx="3" fill="#f44c7f"/>
<text x="735.0" y="326.0" font-size="20" fill="#fff" text-anchor="middle" font-weight="600">Backend FastAPI</text>
<text x="735.0" y="350.0" font-size="14" fill="#aaa" text-anchor="middle" font-weight="400">REST · JWT · /metrics</text>
<rect x="960" y="190" width="210" height="80" rx="14" fill="#232329" stroke="#42a5f5" stroke-width="2"/>
<rect x="960" y="190" width="6" height="80" rx="3" fill="#42a5f5"/>
<text x="1065.0" y="226.0" font-size="20" fill="#fff" text-anchor="middle" font-weight="600">PostgreSQL</text>
<text x="1065.0" y="250.0" font-size="14" fill="#aaa" text-anchor="middle" font-weight="400">SQLAlchemy ORM</text>
<rect x="960" y="400" width="210" height="80" rx="14" fill="#232329" stroke="#ffc857" stroke-width="2"/>
<rect x="960" y="400" width="6" height="80" rx="3" fill="#ffc857"/>
<text x="1065.0" y="436.0" font-size="20" fill="#fff" text-anchor="middle" font-weight="600">RabbitMQ</text>
<text x="1065.0" y="460.0" font-size="14" fill="#aaa" text-anchor="middle" font-weight="400">file de tâches</text>
<rect x="1290" y="400" width="230" height="80" rx="14" fill="#232329" stroke="#66bb6a" stroke-width="2"/>
<rect x="1290" y="400" width="6" height="80" rx="3" fill="#66bb6a"/>
<text x="1405.0" y="436.0" font-size="20" fill="#fff" text-anchor="middle" font-weight="600">Worker Celery</text>
<text x="1405.0" y="460.0" font-size="14" fill="#aaa" text-anchor="middle" font-weight="400">ingestion marché</text>
<rect x="1290" y="190" width="230" height="80" rx="14" fill="#232329" stroke="#66bb6a" stroke-width="2"/>
<rect x="1290" y="190" width="6" height="80" rx="3" fill="#66bb6a"/>
<text x="1405.0" y="226.0" font-size="20" fill="#fff" text-anchor="middle" font-weight="600">Celery Beat</text>
<text x="1405.0" y="250.0" font-size="14" fill="#aaa" text-anchor="middle" font-weight="400">planification</text>
<rect x="620" y="470" width="230" height="76" rx="14" fill="#232329" stroke="#ef5350" stroke-width="2"/>
<rect x="620" y="470" width="6" height="76" rx="3" fill="#ef5350"/>
<text x="735.0" y="504.0" font-size="20" fill="#fff" text-anchor="middle" font-weight="600">Prometheus</text>
<text x="735.0" y="528.0" font-size="14" fill="#aaa" text-anchor="middle" font-weight="400">scraping métriques</text>
<rect x="300" y="470" width="210" height="76" rx="14" fill="#232329" stroke="#ffc857" stroke-width="2"/>
<rect x="300" y="470" width="6" height="76" rx="3" fill="#ffc857"/>
<text x="405.0" y="504.0" font-size="20" fill="#fff" text-anchor="middle" font-weight="600">Grafana</text>
<text x="405.0" y="528.0" font-size="14" fill="#aaa" text-anchor="middle" font-weight="400">dashboards</text>
<rect x="1290" y="40" width="230" height="70" rx="14" fill="#232329" stroke="#9e9e9e" stroke-width="2"/>
<rect x="1290" y="40" width="6" height="70" rx="3" fill="#9e9e9e"/>
<text x="1405.0" y="71.0" font-size="20" fill="#fff" text-anchor="middle" font-weight="600">API CoinGecko</text>
<text x="1405.0" y="95.0" font-size="14" fill="#aaa" text-anchor="middle" font-weight="400">données externes</text>
<line x1="210" y1="330" x2="298" y2="330" stroke="#bbb" stroke-width="2" marker-end="url(#arr)"/>
<text x="254.0" y="322.0" font-size="14" fill="#ccc" text-anchor="middle" font-weight="400">HTTP</text>
<line x1="510" y1="330" x2="618" y2="330" stroke="#bbb" stroke-width="2" marker-end="url(#arr)"/>
<text x="564.0" y="322.0" font-size="14" fill="#ccc" text-anchor="middle" font-weight="400">REST</text>
<line x1="850" y1="310" x2="958" y2="240" stroke="#bbb" stroke-width="2" marker-end="url(#arr)"/>
<text x="904.0" y="267.0" font-size="14" fill="#ccc" text-anchor="middle" font-weight="400">SQL</text>
<line x1="850" y1="350" x2="958" y2="430" stroke="#bbb" stroke-width="2" marker-end="url(#arr)"/>
<text x="880.0" y="415.0" font-size="14" fill="#ccc" text-anchor="middle" font-weight="400">tâches</text>
<line x1="1290" y1="440" x2="1172" y2="440" stroke="#bbb" stroke-width="2" marker-end="url(#arr)"/>
<text x="1231.0" y="432.0" font-size="14" fill="#ccc" text-anchor="middle" font-weight="400">consomme</text>
<line x1="1405" y1="270" x2="1405" y2="398" stroke="#bbb" stroke-width="2" marker-end="url(#arr)"/>
<text x="1460.0" y="340.0" font-size="14" fill="#ccc" text-anchor="middle" font-weight="400">déclenche</text>
<line x1="1290" y1="420" x2="1172" y2="250" stroke="#bbb" stroke-width="2" marker-end="url(#arr)"/>
<text x="1200.0" y="350.0" font-size="14" fill="#ccc" text-anchor="middle" font-weight="400">INSERT</text>
<path d="M1522 440 C 1595 440, 1595 75, 1522 75" fill="none" stroke="#9e9e9e" stroke-width="2" stroke-dasharray="7 6" marker-end="url(#arr)"/>
<text x="1560.0" y="262.0" font-size="14" fill="#999" text-anchor="middle" font-weight="400">prix</text>
<line x1="735" y1="468" x2="735" y2="372" stroke="#bbb" stroke-width="2" marker-end="url(#arr)"/>
<text x="775.0" y="425.0" font-size="14" fill="#ccc" text-anchor="middle" font-weight="400">scrape</text>
<line x1="618" y1="508" x2="512" y2="508" stroke="#bbb" stroke-width="2" marker-end="url(#arr)"/>
<text x="565.0" y="500.0" font-size="14" fill="#ccc" text-anchor="middle" font-weight="400">requêtes</text>

</svg>
