<svg xmlns="http://www.w3.org/2000/svg" viewBox="0 0 1600 600" width="1600" height="600" font-family="'Segoe UI', 'Helvetica Neue', Arial, sans-serif">
<defs>
  <linearGradient id="bg" x1="0" y1="0" x2="0" y2="1">
    <stop offset="0" stop-color="#1b1b1f"/><stop offset="1" stop-color="#101012"/>
  </linearGradient>
  <pattern id="grid" width="40" height="40" patternUnits="userSpaceOnUse">
    <path d="M40 0H0V40" fill="none" stroke="#ffffff" stroke-opacity="0.035"/>
  </pattern>
  <radialGradient id="glow" cx="0.5" cy="0.5" r="0.5">
    <stop offset="0" stop-color="#f44c7f" stop-opacity="0.22"/><stop offset="1" stop-color="#f44c7f" stop-opacity="0"/>
  </radialGradient>
  <marker id="arr" viewBox="0 0 10 10" refX="9" refY="5" markerWidth="7" markerHeight="7" orient="auto-start-reverse">
    <path d="M0 0L10 5L0 10z" fill="#bbb"/>
  </marker>
  <marker id="arrp" viewBox="0 0 10 10" refX="9" refY="5" markerWidth="7" markerHeight="7" orient="auto-start-reverse">
    <path d="M0 0L10 5L0 10z" fill="#f44c7f"/>
  </marker>
</defs>
<rect width="1600" height="600" fill="url(#bg)"/>
<rect width="1600" height="600" fill="url(#grid)"/>
<rect width="1600" height="600" fill="url(#glow)"/>
<g opacity="0.55"><line x1="947" y1="459" x2="800" y2="300" stroke="#42a5f5" stroke-width="9.3" stroke-opacity="0.75"/>
<line x1="507" y1="300" x2="800" y2="300" stroke="#42a5f5" stroke-width="6.6" stroke-opacity="0.75"/>
<line x1="800" y1="300" x2="474" y2="182" stroke="#9e9e9e" stroke-width="4.6" stroke-opacity="0.75"/>
<line x1="800" y1="300" x2="653" y2="141" stroke="#42a5f5" stroke-width="4.4" stroke-opacity="0.75"/>
<line x1="947" y1="141" x2="1093" y2="300" stroke="#42a5f5" stroke-width="4.1" stroke-opacity="0.75"/>
<line x1="474" y1="418" x2="800" y2="300" stroke="#42a5f5" stroke-width="3.5" stroke-opacity="0.75"/>
<line x1="1126" y1="417" x2="800" y2="300" stroke="#42a5f5" stroke-width="3.1" stroke-opacity="0.75"/>
<line x1="474" y1="418" x2="507" y2="300" stroke="#9e9e9e" stroke-width="2.7" stroke-opacity="0.75"/>
<line x1="947" y1="141" x2="800" y2="300" stroke="#9e9e9e" stroke-width="2.6" stroke-opacity="0.75"/>
<line x1="800" y1="65" x2="800" y2="300" stroke="#42a5f5" stroke-width="2.5" stroke-opacity="0.75"/>
<line x1="1126" y1="182" x2="800" y2="300" stroke="#ef5350" stroke-width="2.4" stroke-opacity="0.75"/>
<line x1="1093" y1="300" x2="800" y2="300" stroke="#9e9e9e" stroke-width="2.2" stroke-opacity="0.75"/>
<line x1="800" y1="535" x2="800" y2="300" stroke="#42a5f5" stroke-width="2.2" stroke-opacity="0.75"/>
<line x1="653" y1="459" x2="800" y2="300" stroke="#ef5350" stroke-width="2.2" stroke-opacity="0.75"/>
<circle cx="800" cy="300" r="45" fill="#f44c7f" stroke="#f44c7f" stroke-width="2"/>
<text x="800.0" y="364.6" font-size="18" fill="#eee" text-anchor="middle" font-weight="600">Seldon</text>
<circle cx="800" cy="65" r="18" fill="#2c2c34" stroke="#f44c7f" stroke-width="2"/>
<text x="800.0" y="103.0" font-size="18" fill="#eee" text-anchor="middle" font-weight="600">Amaryl</text>
<circle cx="947" cy="141" r="24" fill="#2c2c34" stroke="#f44c7f" stroke-width="2"/>
<text x="946.6" y="184.8" font-size="18" fill="#eee" text-anchor="middle" font-weight="600">Cléon</text>
<circle cx="1126" cy="182" r="18" fill="#2c2c34" stroke="#f44c7f" stroke-width="2"/>
<text x="1125.6" y="220.3" font-size="18" fill="#eee" text-anchor="middle" font-weight="600">Davan</text>
<circle cx="1093" cy="300" r="23" fill="#2c2c34" stroke="#f44c7f" stroke-width="2"/>
<text x="1093.3" y="343.1" font-size="18" fill="#eee" text-anchor="middle" font-weight="600">Demerzel</text>
<circle cx="1126" cy="417" r="19" fill="#2c2c34" stroke="#f44c7f" stroke-width="2"/>
<text x="1125.6" y="456.9" font-size="18" fill="#eee" text-anchor="middle" font-weight="600">Dors</text>
<circle cx="947" cy="459" r="28" fill="#2c2c34" stroke="#f44c7f" stroke-width="2"/>
<text x="946.6" y="506.5" font-size="18" fill="#eee" text-anchor="middle" font-weight="600">Hummin</text>
<circle cx="800" cy="535" r="17" fill="#2c2c34" stroke="#f44c7f" stroke-width="2"/>
<text x="800.0" y="572.3" font-size="18" fill="#eee" text-anchor="middle" font-weight="600">Kan</text>
<circle cx="653" cy="459" r="17" fill="#2c2c34" stroke="#f44c7f" stroke-width="2"/>
<text x="653.4" y="496.1" font-size="18" fill="#eee" text-anchor="middle" font-weight="600">Leggen</text>
<circle cx="474" cy="418" r="23" fill="#2c2c34" stroke="#f44c7f" stroke-width="2"/>
<text x="474.4" y="460.4" font-size="18" fill="#eee" text-anchor="middle" font-weight="600">Rachelle</text>
<circle cx="507" cy="300" r="27" fill="#2c2c34" stroke="#f44c7f" stroke-width="2"/>
<text x="506.7" y="346.7" font-size="18" fill="#eee" text-anchor="middle" font-weight="600">Raych</text>
<circle cx="474" cy="182" r="22" fill="#2c2c34" stroke="#f44c7f" stroke-width="2"/>
<text x="474.4" y="224.5" font-size="18" fill="#eee" text-anchor="middle" font-weight="600">Tisalver</text>
<circle cx="653" cy="141" r="22" fill="#2c2c34" stroke="#f44c7f" stroke-width="2"/>
<text x="653.4" y="183.0" font-size="18" fill="#eee" text-anchor="middle" font-weight="600">Venabili</text>
</g><rect x="330" y="215" width="940" height="200" rx="26" fill="#121215" fill-opacity="0.82" stroke="#ffffff" stroke-opacity="0.08"/>
<text x="800.0" y="295.0" font-size="64" fill="#fff" text-anchor="middle" font-weight="800">Networker</text>
<text x="800.0" y="340.0" font-size="22" fill="#bbb" text-anchor="middle" font-weight="400">Réseaux de personnages extraits des romans d'Asimov (NLP / NER)</text>
<rect x="460.9" y="370" width="78.2" height="27.0" rx="13.5" fill="#2a2a30" stroke="#f44c7f" stroke-opacity="0.7"/>
<text x="500.0" y="389.5" font-size="15" fill="#f44c7f" text-anchor="middle" font-weight="400">Python</text>
<rect x="615.2" y="370" width="69.5" height="27.0" rx="13.5" fill="#2a2a30" stroke="#f44c7f" stroke-opacity="0.7"/>
<text x="650.0" y="389.5" font-size="15" fill="#f44c7f" text-anchor="middle" font-weight="400">spaCy</text>
<rect x="774.0" y="370" width="52.1" height="27.0" rx="13.5" fill="#2a2a30" stroke="#f44c7f" stroke-opacity="0.7"/>
<text x="800.0" y="389.5" font-size="15" fill="#f44c7f" text-anchor="middle" font-weight="400">NER</text>
<rect x="902.2" y="370" width="95.6" height="27.0" rx="13.5" fill="#2a2a30" stroke="#f44c7f" stroke-opacity="0.7"/>
<text x="950.0" y="389.5" font-size="15" fill="#f44c7f" text-anchor="middle" font-weight="400">NetworkX</text>
<rect x="1056.5" y="370" width="86.9" height="27.0" rx="13.5" fill="#2a2a30" stroke="#f44c7f" stroke-opacity="0.7"/>
<text x="1100.0" y="389.5" font-size="15" fill="#f44c7f" text-anchor="middle" font-weight="400">GraphML</text>

</svg>
